<?xml version="1.0" encoding="utf-8"?>
<!-- Generator: Adobe Illustrator 16.0.0, SVG Export Plug-In . SVG Version: 6.00 Build 0)  -->
<!DOCTYPE svg PUBLIC "-//W3C//DTD SVG 1.1//EN" "http://www.w3.org/Graphics/SVG/1.1/DTD/svg11.dtd">
<svg version="1.1" id="Calque_1" xmlns="http://www.w3.org/2000/svg" xmlns:xlink="http://www.w3.org/1999/xlink" x="0px" y="0px"
	 width="290px" height="80px" viewBox="0 0 290 80" enable-background="new 0 0 290 80" xml:space="preserve">
<g>
	<path fill="#FFFFFF" d="M41.732,1.889C20.038,1.889,1.75,18.993,1.75,40.516c0,21.524,18.294,38.621,39.982,38.621h23.167v0.031
		h85.36c0.652,0,1.293,0.039,1.92,0.097v-0.097h96.659c21.692,0,39.982-17.102,39.982-38.624c0-21.524-18.294-38.623-39.982-38.623
		h-23.165V1.89c-61.552-0.052-122.417,0-183.94,0V1.889z M136.615,2.256h2.876V5.1h2.884V2.256h2.874V5.1h2.881V2.256h2.869V5.1
		h2.882V2.256h2.734V5.1h-2.728v2.85h2.734v2.839h-2.734v2.843h2.734v2.836h-2.734v2.844h2.734v2.837h-2.701v2.759h-2.913V22.15
		h-2.869v2.759h-2.882V22.15h-2.873v2.759h-2.885V22.15h-2.876v2.759h-2.656V22.15h2.656v-2.837h-2.656v-2.844h2.656v-2.836h-2.656
		v-2.843h2.656V7.949h-2.656V5.1h2.656V2.256H136.615z M136.615,5.1v2.85h2.876V5.1H136.615z M139.491,7.949v2.839h2.884V7.949
		H139.491z M142.375,7.949h2.874V5.1h-2.874V7.949z M145.249,7.949v2.839h2.881V7.949H145.249z M148.13,7.949h2.869V5.1h-2.869
		V7.949z M150.999,7.949v2.839h2.882V7.949H150.999z M150.999,10.789h-2.869v2.843h2.869V10.789z M150.999,13.632v2.836h2.882
		v-2.836H150.999z M150.999,16.468h-2.869v2.844h2.869V16.468z M150.999,19.312v2.837h2.882v-2.837H150.999z M148.13,19.312h-2.881
		v2.837h2.881V19.312z M145.249,19.312v-2.844h-2.874v2.844H145.249z M142.375,19.312h-2.884v2.837h2.884V19.312z M139.491,19.312
		v-2.844h-2.876v2.844H139.491z M139.491,16.468h2.884v-2.836h-2.884V16.468z M139.491,13.632v-2.843h-2.876v2.843H139.491z
		 M142.375,13.632h2.874v-2.843h-2.874V13.632z M145.249,13.632v2.836h2.881v-2.836H145.249z M158.105,4.801h8.777v2.93h-8.777
		V4.801z M175.675,4.801h8.793v2.93h-8.793V4.801z M193.26,4.801h8.783v2.93h-8.783V4.801z M210.838,4.801h8.798v2.93h-8.798V4.801z
		 M41.708,4.832h1.834V7.76h-1.779l-3.487,0.171L35.07,8.408l-0.425-2.899l3.304-0.482h0.16l3.604-0.194H41.708z M52.333,4.832
		h8.785V7.76h-8.785V4.832z M69.916,4.832h8.789V7.76h-8.789V4.832z M87.497,4.832h8.781V7.76h-8.781V4.832z M105.076,4.832h8.789
		V7.76h-8.789V4.832z M122.657,4.832h8.783V7.76h-8.783V4.832z M228.414,4.864h8.783v2.93h-8.783V4.864z M246.044,4.864h2.904
		l3.573,0.178h0.159l2.306,0.347l-0.404,2.893l-2.246-0.323l-3.493-0.166h-2.808V4.86L246.044,4.864z M263.824,7.941l2.486,1.151
		l0.066,0.033l0.064,0.05l2.956,1.69l0.129,0.103l2.14,1.532l-1.697,2.386l-2.082-1.488l-2.803-1.623l-2.473-1.148l1.229-2.679
		L263.824,7.941z M25.831,8.374l1.222,2.656l-1.5,0.697l-2.845,1.647l-2.611,1.88l-0.16,0.133h-0.064v0.032l-1.905-2.216
		l0.222-0.179l0.065-0.058l0.064-0.038l2.747-1.964l0.064-0.044l0.064-0.03l2.951-1.716l0.064-0.045l0.064-0.031l1.58-0.732
		L25.831,8.374z M278.188,18.847h0.062v0.03l1.219,1.587l0.065,0.075v0.057l1.786,2.82v0.13l1.519,2.998v0.132l0.031,0.071
		l-2.095,0.8l-0.561,0.293v-0.089l-1.443-2.861l-1.668-2.626v-0.037l-1.215-1.563l2.299-1.813V18.847z M47.72,19.488h8.789v2.93
		H47.72V19.488z M65.295,19.488h8.796v2.93h-8.796V19.488z M82.879,19.488h8.794v2.93h-8.794V19.488z M100.455,19.488h8.796v2.93
		h-8.796V19.488z M118.038,19.488h8.794v2.93h-8.794V19.488z M160.435,19.488l4.304,0.038h4.466v2.93h-4.466l-4.304-0.038V19.488z
		 M248.943,19.488l2.172,0.102h0.129l2.125,0.3h0.064l0.064,0.031l2.046,0.483l0.064,0.039l0.064,0.051l1.715,0.579l-0.935,2.759
		l-1.613-0.548l-1.89-0.441l-1.971-0.28l-2.097-0.083h-0.493v-2.929h0.569v-0.058L248.943,19.488z M177.995,19.519h8.774v2.93
		h-8.774V19.519z M195.576,19.519h8.769v2.93h-8.769V19.519z M213.155,19.519h8.771v2.93h-8.771V19.519z M230.738,19.519h8.774v2.93
		h-8.774V19.519z M11.717,19.635l2.305,1.807l-0.596,0.77v0.038l-1.665,2.626l-1.455,2.868l-0.354,0.934l-2.691-1.033l0.397-1.011
		v-0.138l1.509-3.001v-0.131l1.79-2.813v-0.059l0.064-0.073l0.609-0.787L11.717,19.635z M38.737,19.696l0.409,2.899l-1.451,0.2
		l-1.951,0.462l-1.796,0.609l-1.719,0.773l-0.804,0.464h-0.03v0.031l-1.436-2.526l0.922-0.533l0.065-0.031l0.064-0.038l1.84-0.824
		l0.128-0.062l1.94-0.665l0.064-0.032h0.065l2.025-0.483l0.065-0.038h0.064l1.549-0.22L38.737,19.696z M41.74,25.339
		c69.074,0,138.051,0.044,207.109,0.044c9.741,0,16.543,6.855,16.543,15.18c0,8.323-6.804,15.191-16.543,15.191
		c-74.122,0-131.417-0.045-207.109-0.045c-9.741,0-16.543-6.854-16.543-15.177c0-8.324,6.803-15.19,16.543-15.19V25.339z
		 M265.328,26.188h0.19l0.884,0.914l0.065,0.058v0.059l1.183,1.514l0.031,0.065v0.058l1.017,1.611v0.132l0.867,1.708v0.131
		l0.635,1.648l-2.738,1.044l-0.626-1.607l-0.791-1.586l-0.906-1.404v-0.031l-1.157-1.471l-0.788-0.812l2.139-2.02L265.328,26.188z
		 M22.954,28.922l2.466,1.576l-0.903,1.433l-0.801,1.576l-0.642,1.677l-0.447,1.703l-0.192,1.121l-2.778-0.437l0.223-1.216v-0.134
		l0.5-1.869v-0.137l0.686-1.8l0.031-0.073v-0.061l0.854-1.715v-0.13l0.971-1.52L22.954,28.922z M285.445,35.445l0.033,0.045
		l0.189,1.355v0.13l0.223,3.523v0.147l-0.223,3.521v0.126l-0.064,0.368v0.03l-2.886-0.465l0.065-0.281l0.19-3.375l-0.19-3.375
		l-0.223-1.268l2.883-0.475L285.445,35.445z M4.933,36.422l2.885,0.465l-0.064,0.286l-0.19,3.375l0.19,3.376l0.222,1.271
		l-2.88,0.463l-0.033-0.044L4.872,44.26v-0.128L4.651,40.61v-0.153l0.221-3.521v-0.138l0.065-0.377L4.933,36.422z M268.108,43.085
		l2.773,0.447l-0.222,1.206v0.142l-0.493,1.866v0.063l-0.03,0.068l-0.687,1.8v0.137l-0.851,1.717v0.126l-0.974,1.513l-2.471-1.574
		l0.909-1.428l0.794-1.58l0.642-1.673l0.446-1.703l0.162-1.124V43.085z M23.097,45.974l0.619,1.604l0.793,1.586l0.897,1.411v0.038
		l1.157,1.472l0.787,0.812l-2.13,2.027h-0.192l-0.88-0.915l-0.065-0.067v-0.051l-1.187-1.514l-0.03-0.073v-0.057l-1.023-1.611
		v-0.139l-0.845-1.708v-0.131l-0.646-1.647l2.739-1.043L23.097,45.974z M280.609,52.424l2.678,1.025l-0.396,1.02v0.067l-0.03,0.06
		l-1.493,3.009v0.057l-0.031,0.061l-1.779,2.825v0.059l-0.064,0.06l-0.622,0.788l-2.286-1.807l0.581-0.771v-0.038l1.679-2.625
		l1.447-2.868l0.347-0.921H280.609z M10.326,53.254v0.104l1.453,2.864l1.662,2.623v0.045l1.218,1.562l-2.299,1.807h-0.062v-0.037
		l-1.231-1.586L11,60.577v-0.061l-1.801-2.819v-0.131L7.685,54.57v-0.198l2.099-0.799l0.567-0.325L10.326,53.254z M259.137,55.952
		l1.435,2.533l-0.921,0.524l-0.063,0.045l-0.065,0.038l-1.832,0.823l-0.064,0.039l-0.064,0.029l-1.942,0.665l-0.064,0.038h-0.063
		l-2.046,0.483l-0.064,0.038h-0.064l-1.498,0.199l-0.411-2.892l1.451-0.201l1.95-0.461l1.79-0.61l1.729-0.776l0.797-0.463v-0.046
		L259.137,55.952z M34.066,57.276l1.686,0.562l1.861,0.445l1.974,0.286l2.112,0.075h0.475v2.929h-0.569v0.051l-2.184-0.102h-0.129
		l-2.111-0.308h-0.065l-0.064-0.037l-2.045-0.484l-0.063-0.031l-0.065-0.036l-1.722-0.579l0.899-2.771H34.066z M51.031,58.651h8.788
		v2.929h-8.788V58.651z M68.619,58.651H77.4v2.929h-8.782V58.651z M86.198,58.651h8.782v2.929h-8.782V58.651z M103.774,58.651h8.788
		v2.929h-8.788V58.651z M121.339,58.651h4.479l4.303,0.044v2.929l-4.303-0.044h-4.472v-2.929H121.339z M138.32,58.682h16.476v3.123
		H138.32V58.682z M163.717,58.682h8.804v2.931h-8.804V58.682z M181.291,58.682h8.811v2.931h-8.811V58.682z M198.87,58.682h8.812
		v2.931h-8.812V58.682z M216.451,58.682h8.811v2.931h-8.811V58.682z M234.035,58.682h8.805v2.931h-8.805V58.682z M270.671,65.681
		l1.913,2.216l-0.224,0.179l-0.064,0.059l-0.063,0.036l-2.767,1.965l-0.065,0.052l-0.064,0.031l-2.935,1.719l-0.064,0.039
		l-0.063,0.03l-1.576,0.733l-1.249-2.649l1.523-0.696l2.852-1.648l2.605-1.879l0.159-0.135h0.065v-0.044L270.671,65.681z
		 M20.615,66.236l2.083,1.489l2.795,1.624l2.471,1.148l-1.229,2.661l-2.494-1.155l-0.065-0.044l-0.064-0.038l-2.954-1.702
		l-0.064-0.038l-0.065-0.044l-2.14-1.534l1.713-2.372L20.615,66.236z M255.48,72.676l0.412,2.899l-3.29,0.482h-0.16l-3.597,0.185
		h-1.831v-2.931h1.752l3.488-0.171l3.219-0.462L255.48,72.676z M35.954,72.811l2.268,0.328l3.493,0.167H44.5v2.931h-2.908
		l-3.584-0.185h-0.161l-2.293-0.348l0.403-2.893L35.954,72.811z M53.343,73.304h8.797v2.931h-8.797V73.304z M159.114,73.334h8.771
		v2.931h-8.771V73.334z M176.689,73.334h8.775v2.931h-8.775V73.334z M194.273,73.334h8.769v2.931h-8.769V73.334z M211.849,73.334
		h8.774v2.931h-8.774V73.334z M229.435,73.334h8.772v2.931h-8.772V73.334z M70.91,73.366h8.798v2.935H70.91V73.366z M88.494,73.366
		h8.797v2.935h-8.797V73.366z M106.068,73.366h8.804v2.935h-8.804V73.366z M123.651,73.366h8.792v2.935h-8.792V73.366z
		 M141.527,73.366h8.502v2.91h-8.502V73.366z"/>
</g>
</svg>
