<?xml version="1.0" encoding="utf-8"?>
<!-- Generator: Adobe Illustrator 16.0.0, SVG Export Plug-In . SVG Version: 6.00 Build 0)  -->
<!DOCTYPE svg PUBLIC "-//W3C//DTD SVG 1.1//EN" "http://www.w3.org/Graphics/SVG/1.1/DTD/svg11.dtd">
<svg version="1.1" id="Calque_1" xmlns="http://www.w3.org/2000/svg" xmlns:xlink="http://www.w3.org/1999/xlink" x="0px" y="0px"
	 width="60px" height="30px" viewBox="0 0 60 30" enable-background="new 0 0 60 30" xml:space="preserve">
<g id="XMLID_7_">
	<g id="XMLID_14_">
		<path fill-rule="evenodd" clip-rule="evenodd" fill="#CD0F19" d="M51.344,26.455V3.486c-0.243-1.999-1.961-3.551-4.018-3.551
			H4.042c-2.056,0-3.776,1.552-4.018,3.551v22.969c0.242,1.981,1.962,3.552,4.018,3.552h43.284
			C49.383,30.007,51.101,28.437,51.344,26.455L51.344,26.455z"/>
	</g>
	<g id="XMLID_13_">
		<polygon fill-rule="evenodd" clip-rule="evenodd" fill="#F7E300" points="4.959,10.813 5.911,7.822 3.389,5.954 6.528,5.954 
			7.5,2.945 8.472,5.954 11.613,5.954 9.088,7.822 10.041,10.813 7.5,8.962 		"/>
	</g>
	<g id="XMLID_12_">
		<polygon fill-rule="evenodd" clip-rule="evenodd" fill="#F7E300" points="13.706,12.439 14.77,12.869 15.5,11.99 15.424,13.13 
			16.489,13.56 15.368,13.84 15.293,14.981 14.677,14.009 13.573,14.29 14.303,13.411 		"/>
	</g>
	<g id="XMLID_10_">
		<polygon fill-rule="evenodd" clip-rule="evenodd" fill="#F7E300" points="19.442,6.664 18.321,6.476 17.779,7.486 17.63,6.346 
			16.489,6.141 17.517,5.655 17.367,4.515 18.153,5.336 19.181,4.832 18.656,5.842 		"/>
	</g>
	<g id="XMLID_9_">
		<polygon fill-rule="evenodd" clip-rule="evenodd" fill="#F7E300" points="17.05,11.803 17.406,10.719 16.489,10.028 17.63,10.028 
			17.985,8.944 18.339,10.028 19.48,10.028 18.563,10.719 18.9,11.803 17.985,11.131 		"/>
	</g>
	<g id="XMLID_8_">
		<polygon fill-rule="evenodd" clip-rule="evenodd" fill="#F7E300" points="13.761,1.843 14.807,2.329 15.573,1.487 15.443,2.627 
			16.471,3.113 15.349,3.337 15.218,4.477 14.658,3.469 13.537,3.692 14.321,2.851 		"/>
	</g>
</g>
</svg>
