<?xml version="1.0" encoding="utf-8"?>
<!-- Generator: Adobe Illustrator 16.0.0, SVG Export Plug-In . SVG Version: 6.00 Build 0)  -->
<!DOCTYPE svg PUBLIC "-//W3C//DTD SVG 1.1//EN" "http://www.w3.org/Graphics/SVG/1.1/DTD/svg11.dtd">
<svg version="1.1" id="Calque_1" xmlns="http://www.w3.org/2000/svg" xmlns:xlink="http://www.w3.org/1999/xlink" x="0px" y="0px"
	 width="60px" height="30px" viewBox="0 0 60 30" enable-background="new 0 0 60 30" xml:space="preserve">
<g id="XMLID_15_">
	<g id="XMLID_53_">
		<path fill-rule="evenodd" clip-rule="evenodd" fill="#1B1F78" d="M3.304,30.021h44.745c1.741-0.3,3.129-1.723,3.353-3.502V3.521
			c-0.224-1.781-1.611-3.203-3.353-3.503H3.304c-1.742,0.3-3.128,1.722-3.352,3.483V26.52C0.175,28.299,1.562,29.722,3.304,30.021
			L3.304,30.021z"/>
	</g>
	<g id="XMLID_52_">
		<polygon fill-rule="evenodd" clip-rule="evenodd" fill="#FEFEFE" points="13.474,18.391 14.279,20.845 16.658,19.928 
			15.253,22.062 17.445,23.374 14.897,23.578 15.253,26.126 13.474,24.272 11.732,26.126 12.069,23.578 9.522,23.374 11.732,22.062 
			10.309,19.928 12.706,20.845 		"/>
	</g>
	<g id="XMLID_51_">
		<polygon fill-rule="evenodd" clip-rule="evenodd" fill="#FEFEFE" points="40.557,22.774 40.93,23.934 42.074,23.504 
			41.399,24.533 42.449,25.151 41.232,25.246 41.399,26.464 40.557,25.583 39.715,26.464 39.884,25.246 38.665,25.151 
			39.715,24.533 39.04,23.504 40.182,23.934 		"/>
	</g>
	<g id="XMLID_50_">
		<polygon fill-rule="evenodd" clip-rule="evenodd" fill="#FEFEFE" points="33.795,12.06 34.17,13.222 35.293,12.792 34.619,13.821 
			35.67,14.439 34.451,14.533 34.619,15.749 33.795,14.85 32.951,15.749 33.122,14.533 31.903,14.439 32.951,13.821 32.278,12.792 
			33.42,13.222 		"/>
	</g>
	<g id="XMLID_49_">
		<polygon fill-rule="evenodd" clip-rule="evenodd" fill="#FEFEFE" points="40.557,4.736 40.93,5.898 42.074,5.468 41.399,6.479 
			42.449,7.097 41.232,7.21 41.399,8.409 40.557,7.527 39.715,8.409 39.884,7.21 38.665,7.097 39.715,6.479 39.04,5.468 
			40.182,5.898 		"/>
	</g>
	<g id="XMLID_48_">
		<polygon fill-rule="evenodd" clip-rule="evenodd" fill="#FEFEFE" points="46.569,10.262 46.943,11.423 48.086,10.993 
			47.413,12.005 48.461,12.622 47.244,12.735 47.413,13.934 46.569,13.054 45.727,13.934 45.896,12.735 44.696,12.622 
			45.727,12.005 45.071,10.993 46.194,11.423 		"/>
	</g>
	<g id="XMLID_47_">
		<polygon fill-rule="evenodd" clip-rule="evenodd" fill="#FEFEFE" points="43.254,15.695 43.554,16.404 44.341,16.48 43.74,16.967 
			43.929,17.735 43.254,17.323 42.599,17.735 42.787,16.967 42.187,16.48 42.974,16.404 		"/>
	</g>
	<g id="XMLID_46_">
		<polygon fill-rule="evenodd" clip-rule="evenodd" fill="#FEFEFE" points="11.227,0.018 11.227,4.53 -0.048,4.53 -0.048,9.045 
			11.227,9.045 11.227,13.54 15.74,13.54 15.74,9.045 27.035,9.045 27.035,4.53 15.74,4.53 15.74,0.018 		"/>
	</g>
	<g id="XMLID_45_">
		<path fill-rule="evenodd" clip-rule="evenodd" fill="#FEFEFE" d="M0.568,1.833L24,13.54h3.015v-1.498L3.079,0.054
			C2.03,0.298,1.131,0.953,0.568,1.833L0.568,1.833z"/>
	</g>
	<g id="XMLID_44_">
		<polygon fill-rule="evenodd" clip-rule="evenodd" fill="#FEFEFE" points="24,0.018 -0.048,12.042 -0.048,13.54 2.986,13.54 
			27.015,1.534 27.015,0.018 		"/>
	</g>
	<g id="XMLID_43_">
		<polygon fill-rule="evenodd" clip-rule="evenodd" fill="#E30113" points="12.125,0.018 12.125,5.43 -0.048,5.43 -0.048,8.127 
			12.125,8.127 12.125,13.54 14.841,13.54 14.841,8.127 27.015,8.127 27.015,5.43 14.841,5.43 14.841,0.018 		"/>
	</g>
	<g id="XMLID_40_">
		<path fill-rule="evenodd" clip-rule="evenodd" fill="#E30113" d="M25.012,0.018L15.983,4.53h2.024l9.007-4.513H25.012z
			 M0.831,1.459c0.207-0.243,0.431-0.469,0.693-0.675L8.979,4.53H6.957L0.831,1.459z"/>
	</g>
	<g id="XMLID_16_">
		<path fill-rule="evenodd" clip-rule="evenodd" fill="#E30113" d="M18.007,9.045l9.027,4.495v-0.994L20.01,9.045H18.007z
			 M8.979,9.045l-9.027,4.495h2.022l9.027-4.495H8.979z"/>
	</g>
</g>
</svg>
