<?xml version="1.0" encoding="utf-8"?>
<!-- Generator: Adobe Illustrator 16.0.0, SVG Export Plug-In . SVG Version: 6.00 Build 0)  -->
<!DOCTYPE svg PUBLIC "-//W3C//DTD SVG 1.1//EN" "http://www.w3.org/Graphics/SVG/1.1/DTD/svg11.dtd">
<svg version="1.1" id="Calque_1" xmlns="http://www.w3.org/2000/svg" xmlns:xlink="http://www.w3.org/1999/xlink" x="0px" y="0px"
	 width="60px" height="30px" viewBox="0 0 60 30" enable-background="new 0 0 60 30" xml:space="preserve">
<g id="XMLID_54_">
	<g id="XMLID_188_">
		<path fill-rule="evenodd" clip-rule="evenodd" fill="#CF0E19" d="M3.352,30h44.737c1.33-0.225,2.453-1.105,2.996-2.304H0.336
			C0.899,28.895,2.003,29.775,3.352,30L3.352,30z"/>
	</g>
	<g id="XMLID_187_">
		<path fill-rule="evenodd" clip-rule="evenodd" fill="#FEFEFE" d="M0.336,27.696h50.749c0.188-0.376,0.3-0.769,0.355-1.198v-1.105
			H0v1.105C0.056,26.928,0.168,27.32,0.336,27.696L0.336,27.696z"/>
	</g>
	<g id="XMLID_186_">
		<rect y="23.089" fill-rule="evenodd" clip-rule="evenodd" fill="#CF0E19" width="51.44" height="2.304"/>
	</g>
	<g id="XMLID_185_">
		<rect y="20.785" fill-rule="evenodd" clip-rule="evenodd" fill="#FEFEFE" width="51.44" height="2.304"/>
	</g>
	<g id="XMLID_184_">
		<rect y="18.465" fill-rule="evenodd" clip-rule="evenodd" fill="#CF0E19" width="51.44" height="2.32"/>
	</g>
	<g id="XMLID_183_">
		<rect y="16.16" fill-rule="evenodd" clip-rule="evenodd" fill="#FEFEFE" width="51.44" height="2.305"/>
	</g>
	<g id="XMLID_182_">
		<rect y="13.857" fill-rule="evenodd" clip-rule="evenodd" fill="#CF0E19" width="51.44" height="2.303"/>
	</g>
	<g id="XMLID_181_">
		<rect y="11.536" fill-rule="evenodd" clip-rule="evenodd" fill="#FEFEFE" width="51.44" height="2.321"/>
	</g>
	<g id="XMLID_180_">
		<rect y="9.232" fill-rule="evenodd" clip-rule="evenodd" fill="#CF0E19" width="51.44" height="2.304"/>
	</g>
	<g id="XMLID_179_">
		<rect y="6.929" fill-rule="evenodd" clip-rule="evenodd" fill="#FEFEFE" width="51.44" height="2.304"/>
	</g>
	<g id="XMLID_178_">
		<rect y="4.625" fill-rule="evenodd" clip-rule="evenodd" fill="#CF0E19" width="51.44" height="2.303"/>
	</g>
	<g id="XMLID_177_">
		<path fill-rule="evenodd" clip-rule="evenodd" fill="#FEFEFE" d="M0,4.625h51.44V3.502c-0.056-0.413-0.168-0.824-0.355-1.198
			H0.336C0.168,2.678,0.056,3.089,0,3.502V4.625z"/>
	</g>
	<g id="XMLID_176_">
		<path fill-rule="evenodd" clip-rule="evenodd" fill="#CF0E19" d="M0.336,2.304h50.749C50.542,1.124,49.419,0.225,48.089,0H3.333
			C2.003,0.225,0.899,1.124,0.336,2.304L0.336,2.304z"/>
	</g>
	<g id="XMLID_175_">
		<path fill-rule="evenodd" clip-rule="evenodd" fill="#183060" d="M0,16.16h23.482V0H3.333C1.592,0.299,0.225,1.742,0,3.502V16.16z
			"/>
	</g>
	<g id="XMLID_174_">
		<polygon fill-rule="evenodd" clip-rule="evenodd" fill="#FEFEFE" points="2.116,1.778 2.321,2.397 2.958,2.397 2.434,2.771 
			2.641,3.39 2.116,3.015 1.592,3.39 1.797,2.771 1.273,2.397 1.91,2.397 		"/>
	</g>
	<g id="XMLID_173_">
		<polygon fill-rule="evenodd" clip-rule="evenodd" fill="#FEFEFE" points="2.116,4.476 2.321,5.094 2.958,5.094 2.434,5.468 
			2.641,6.086 2.116,5.693 1.592,6.086 1.797,5.468 1.273,5.094 1.91,5.094 		"/>
	</g>
	<g id="XMLID_172_">
		<polygon fill-rule="evenodd" clip-rule="evenodd" fill="#FEFEFE" points="2.116,7.172 2.321,7.791 2.958,7.791 2.434,8.164 
			2.641,8.783 2.116,8.39 1.592,8.783 1.797,8.164 1.273,7.791 1.91,7.791 		"/>
	</g>
	<g id="XMLID_171_">
		<polygon fill-rule="evenodd" clip-rule="evenodd" fill="#FEFEFE" points="2.116,9.868 2.321,10.487 2.958,10.487 2.434,10.861 
			2.641,11.479 2.116,11.105 1.592,11.479 1.797,10.861 1.273,10.487 1.91,10.487 		"/>
	</g>
	<g id="XMLID_170_">
		<polygon fill-rule="evenodd" clip-rule="evenodd" fill="#FEFEFE" points="2.116,12.565 2.321,13.184 2.958,13.184 2.434,13.558 
			2.641,14.176 2.116,13.783 1.592,14.176 1.797,13.558 1.273,13.184 1.91,13.184 		"/>
	</g>
	<g id="XMLID_169_">
		<polygon fill-rule="evenodd" clip-rule="evenodd" fill="#FEFEFE" points="3.988,3.203 4.195,3.82 4.832,3.82 4.325,4.195 
			4.513,4.794 3.988,4.419 3.483,4.794 3.669,4.195 3.165,3.82 3.801,3.82 		"/>
	</g>
	<g id="XMLID_168_">
		<polygon fill-rule="evenodd" clip-rule="evenodd" fill="#FEFEFE" points="3.988,5.898 4.195,6.517 4.832,6.517 4.325,6.892 
			4.513,7.491 3.988,7.135 3.483,7.491 3.669,6.892 3.165,6.517 3.801,6.517 		"/>
	</g>
	<g id="XMLID_167_">
		<polygon fill-rule="evenodd" clip-rule="evenodd" fill="#FEFEFE" points="3.988,8.596 4.195,9.212 4.832,9.212 4.325,9.588 
			4.513,10.206 3.988,9.813 3.483,10.206 3.669,9.588 3.165,9.212 3.801,9.212 		"/>
	</g>
	<g id="XMLID_166_">
		<polygon fill-rule="evenodd" clip-rule="evenodd" fill="#FEFEFE" points="3.988,11.292 4.195,11.91 4.832,11.91 4.325,12.285 
			4.513,12.884 3.988,12.509 3.483,12.884 3.669,12.285 3.165,11.91 3.801,11.91 		"/>
	</g>
	<g id="XMLID_165_">
		<polygon fill-rule="evenodd" clip-rule="evenodd" fill="#FEFEFE" points="5.898,1.778 6.104,2.397 6.742,2.397 6.217,2.771 
			6.423,3.39 5.898,3.015 5.374,3.39 5.58,2.771 5.056,2.397 5.693,2.397 		"/>
	</g>
	<g id="XMLID_164_">
		<polygon fill-rule="evenodd" clip-rule="evenodd" fill="#FEFEFE" points="5.898,4.476 6.104,5.094 6.742,5.094 6.217,5.468 
			6.423,6.086 5.898,5.693 5.374,6.086 5.58,5.468 5.056,5.094 5.693,5.094 		"/>
	</g>
	<g id="XMLID_163_">
		<polygon fill-rule="evenodd" clip-rule="evenodd" fill="#FEFEFE" points="5.898,7.172 6.104,7.791 6.742,7.791 6.217,8.164 
			6.423,8.783 5.898,8.39 5.374,8.783 5.58,8.164 5.056,7.791 5.693,7.791 		"/>
	</g>
	<g id="XMLID_162_">
		<polygon fill-rule="evenodd" clip-rule="evenodd" fill="#FEFEFE" points="5.898,9.868 6.104,10.487 6.742,10.487 6.217,10.861 
			6.423,11.479 5.898,11.105 5.374,11.479 5.58,10.861 5.056,10.487 5.693,10.487 		"/>
	</g>
	<g id="XMLID_161_">
		<polygon fill-rule="evenodd" clip-rule="evenodd" fill="#FEFEFE" points="5.898,12.565 6.104,13.184 6.742,13.184 6.217,13.558 
			6.423,14.176 5.898,13.783 5.374,14.176 5.58,13.558 5.056,13.184 5.693,13.184 		"/>
	</g>
	<g id="XMLID_160_">
		<polygon fill-rule="evenodd" clip-rule="evenodd" fill="#FEFEFE" points="7.771,3.203 7.977,3.82 8.614,3.82 8.089,4.195 
			8.295,4.794 7.771,4.419 7.265,4.794 7.453,4.195 6.929,3.82 7.584,3.82 		"/>
	</g>
	<g id="XMLID_159_">
		<polygon fill-rule="evenodd" clip-rule="evenodd" fill="#FEFEFE" points="7.771,5.898 7.977,6.517 8.614,6.517 8.089,6.892 
			8.295,7.491 7.771,7.135 7.265,7.491 7.453,6.892 6.929,6.517 7.584,6.517 		"/>
	</g>
	<g id="XMLID_158_">
		<polygon fill-rule="evenodd" clip-rule="evenodd" fill="#FEFEFE" points="7.771,8.596 7.977,9.212 8.614,9.212 8.089,9.588 
			8.295,10.206 7.771,9.813 7.265,10.206 7.453,9.588 6.929,9.212 7.584,9.212 		"/>
	</g>
	<g id="XMLID_157_">
		<polygon fill-rule="evenodd" clip-rule="evenodd" fill="#FEFEFE" points="7.771,11.292 7.977,11.91 8.614,11.91 8.089,12.285 
			8.295,12.884 7.771,12.509 7.265,12.884 7.453,12.285 6.929,11.91 7.584,11.91 		"/>
	</g>
	<g id="XMLID_156_">
		<polygon fill-rule="evenodd" clip-rule="evenodd" fill="#FEFEFE" points="9.682,1.778 9.888,2.397 10.524,2.397 10,2.771 
			10.205,3.39 9.682,3.015 9.157,3.39 9.362,2.771 8.838,2.397 9.476,2.397 		"/>
	</g>
	<g id="XMLID_155_">
		<polygon fill-rule="evenodd" clip-rule="evenodd" fill="#FEFEFE" points="9.682,4.476 9.888,5.094 10.524,5.094 10,5.468 
			10.205,6.086 9.682,5.693 9.157,6.086 9.362,5.468 8.838,5.094 9.476,5.094 		"/>
	</g>
	<g id="XMLID_154_">
		<polygon fill-rule="evenodd" clip-rule="evenodd" fill="#FEFEFE" points="9.682,7.172 9.888,7.791 10.524,7.791 10,8.164 
			10.205,8.783 9.682,8.39 9.157,8.783 9.362,8.164 8.838,7.791 9.476,7.791 		"/>
	</g>
	<g id="XMLID_153_">
		<polygon fill-rule="evenodd" clip-rule="evenodd" fill="#FEFEFE" points="9.682,9.868 9.888,10.487 10.524,10.487 10,10.861 
			10.205,11.479 9.682,11.105 9.157,11.479 9.362,10.861 8.838,10.487 9.476,10.487 		"/>
	</g>
	<g id="XMLID_152_">
		<polygon fill-rule="evenodd" clip-rule="evenodd" fill="#FEFEFE" points="9.682,12.565 9.888,13.184 10.524,13.184 10,13.558 
			10.205,14.176 9.682,13.783 9.157,14.176 9.362,13.558 8.838,13.184 9.476,13.184 		"/>
	</g>
	<g id="XMLID_151_">
		<polygon fill-rule="evenodd" clip-rule="evenodd" fill="#FEFEFE" points="11.553,3.203 11.76,3.82 12.397,3.82 11.873,4.195 
			12.079,4.794 11.553,4.419 11.048,4.794 11.235,4.195 10.711,3.82 11.367,3.82 		"/>
	</g>
	<g id="XMLID_150_">
		<polygon fill-rule="evenodd" clip-rule="evenodd" fill="#FEFEFE" points="11.553,5.898 11.76,6.517 12.397,6.517 11.873,6.892 
			12.079,7.491 11.553,7.135 11.048,7.491 11.235,6.892 10.711,6.517 11.367,6.517 		"/>
	</g>
	<g id="XMLID_149_">
		<polygon fill-rule="evenodd" clip-rule="evenodd" fill="#FEFEFE" points="11.553,8.596 11.76,9.212 12.397,9.212 11.873,9.588 
			12.079,10.206 11.553,9.813 11.048,10.206 11.235,9.588 10.711,9.212 11.367,9.212 		"/>
	</g>
	<g id="XMLID_148_">
		<polygon fill-rule="evenodd" clip-rule="evenodd" fill="#FEFEFE" points="11.553,11.292 11.76,11.91 12.397,11.91 11.873,12.285 
			12.079,12.884 11.553,12.509 11.048,12.884 11.235,12.285 10.711,11.91 11.367,11.91 		"/>
	</g>
	<g id="XMLID_147_">
		<polygon fill-rule="evenodd" clip-rule="evenodd" fill="#FEFEFE" points="13.464,1.778 13.651,2.397 14.307,2.397 13.782,2.771 
			13.989,3.39 13.464,3.015 12.939,3.39 13.145,2.771 12.621,2.397 13.258,2.397 		"/>
	</g>
	<g id="XMLID_146_">
		<polygon fill-rule="evenodd" clip-rule="evenodd" fill="#FEFEFE" points="13.464,4.476 13.651,5.094 14.307,5.094 13.782,5.468 
			13.989,6.086 13.464,5.693 12.939,6.086 13.145,5.468 12.621,5.094 13.258,5.094 		"/>
	</g>
	<g id="XMLID_145_">
		<polygon fill-rule="evenodd" clip-rule="evenodd" fill="#FEFEFE" points="13.464,7.172 13.651,7.791 14.307,7.791 13.782,8.164 
			13.989,8.783 13.464,8.39 12.939,8.783 13.145,8.164 12.621,7.791 13.258,7.791 		"/>
	</g>
	<g id="XMLID_144_">
		<polygon fill-rule="evenodd" clip-rule="evenodd" fill="#FEFEFE" points="13.464,9.868 13.651,10.487 14.307,10.487 
			13.782,10.861 13.989,11.479 13.464,11.105 12.939,11.479 13.145,10.861 12.621,10.487 13.258,10.487 		"/>
	</g>
	<g id="XMLID_143_">
		<polygon fill-rule="evenodd" clip-rule="evenodd" fill="#FEFEFE" points="13.464,12.565 13.651,13.184 14.307,13.184 
			13.782,13.558 13.989,14.176 13.464,13.783 12.939,14.176 13.145,13.558 12.621,13.184 13.258,13.184 		"/>
	</g>
	<g id="XMLID_142_">
		<polygon fill-rule="evenodd" clip-rule="evenodd" fill="#FEFEFE" points="15.336,3.203 15.542,3.82 16.179,3.82 15.655,4.195 
			15.861,4.794 15.336,4.419 14.812,4.794 15.018,4.195 14.494,3.82 15.149,3.82 		"/>
	</g>
	<g id="XMLID_141_">
		<polygon fill-rule="evenodd" clip-rule="evenodd" fill="#FEFEFE" points="15.336,5.898 15.542,6.517 16.179,6.517 15.655,6.892 
			15.861,7.491 15.336,7.135 14.812,7.491 15.018,6.892 14.494,6.517 15.149,6.517 		"/>
	</g>
	<g id="XMLID_140_">
		<polygon fill-rule="evenodd" clip-rule="evenodd" fill="#FEFEFE" points="15.336,8.596 15.542,9.212 16.179,9.212 15.655,9.588 
			15.861,10.206 15.336,9.813 14.812,10.206 15.018,9.588 14.494,9.212 15.149,9.212 		"/>
	</g>
	<g id="XMLID_139_">
		<polygon fill-rule="evenodd" clip-rule="evenodd" fill="#FEFEFE" points="15.336,11.292 15.542,11.91 16.179,11.91 15.655,12.285 
			15.861,12.884 15.336,12.509 14.812,12.884 15.018,12.285 14.494,11.91 15.149,11.91 		"/>
	</g>
	<g id="XMLID_138_">
		<polygon fill-rule="evenodd" clip-rule="evenodd" fill="#FEFEFE" points="17.247,1.778 17.434,2.397 18.089,2.397 17.565,2.771 
			17.752,3.39 17.247,3.015 16.723,3.39 16.928,2.771 16.404,2.397 17.041,2.397 		"/>
	</g>
	<g id="XMLID_137_">
		<polygon fill-rule="evenodd" clip-rule="evenodd" fill="#FEFEFE" points="17.247,4.476 17.434,5.094 18.089,5.094 17.565,5.468 
			17.752,6.086 17.247,5.693 16.723,6.086 16.928,5.468 16.404,5.094 17.041,5.094 		"/>
	</g>
	<g id="XMLID_136_">
		<polygon fill-rule="evenodd" clip-rule="evenodd" fill="#FEFEFE" points="17.247,7.172 17.434,7.791 18.089,7.791 17.565,8.164 
			17.752,8.783 17.247,8.39 16.723,8.783 16.928,8.164 16.404,7.791 17.041,7.791 		"/>
	</g>
	<g id="XMLID_135_">
		<polygon fill-rule="evenodd" clip-rule="evenodd" fill="#FEFEFE" points="17.247,9.868 17.434,10.487 18.089,10.487 
			17.565,10.861 17.752,11.479 17.247,11.105 16.723,11.479 16.928,10.861 16.404,10.487 17.041,10.487 		"/>
	</g>
	<g id="XMLID_134_">
		<polygon fill-rule="evenodd" clip-rule="evenodd" fill="#FEFEFE" points="17.247,12.565 17.434,13.184 18.089,13.184 
			17.565,13.558 17.752,14.176 17.247,13.783 16.723,14.176 16.928,13.558 16.404,13.184 17.041,13.184 		"/>
	</g>
	<g id="XMLID_133_">
		<polygon fill-rule="evenodd" clip-rule="evenodd" fill="#FEFEFE" points="19.119,3.203 19.307,3.82 19.962,3.82 19.438,4.195 
			19.644,4.794 19.119,4.419 18.595,4.794 18.801,4.195 18.276,3.82 18.914,3.82 		"/>
	</g>
	<g id="XMLID_132_">
		<polygon fill-rule="evenodd" clip-rule="evenodd" fill="#FEFEFE" points="19.119,5.898 19.307,6.517 19.962,6.517 19.438,6.892 
			19.644,7.491 19.119,7.135 18.595,7.491 18.801,6.892 18.276,6.517 18.914,6.517 		"/>
	</g>
	<g id="XMLID_131_">
		<polygon fill-rule="evenodd" clip-rule="evenodd" fill="#FEFEFE" points="19.119,8.596 19.307,9.212 19.962,9.212 19.438,9.588 
			19.644,10.206 19.119,9.813 18.595,10.206 18.801,9.588 18.276,9.212 18.914,9.212 		"/>
	</g>
	<g id="XMLID_130_">
		<polygon fill-rule="evenodd" clip-rule="evenodd" fill="#FEFEFE" points="19.119,11.292 19.307,11.91 19.962,11.91 19.438,12.285 
			19.644,12.884 19.119,12.509 18.595,12.884 18.801,12.285 18.276,11.91 18.914,11.91 		"/>
	</g>
	<g id="XMLID_129_">
		<polygon fill-rule="evenodd" clip-rule="evenodd" fill="#FEFEFE" points="21.01,1.778 21.217,2.397 21.854,2.397 21.348,2.771 
			21.535,3.39 21.01,3.015 20.505,3.39 20.692,2.771 20.186,2.397 20.823,2.397 		"/>
	</g>
	<g id="XMLID_128_">
		<polygon fill-rule="evenodd" clip-rule="evenodd" fill="#FEFEFE" points="21.01,4.476 21.217,5.094 21.854,5.094 21.348,5.468 
			21.535,6.086 21.01,5.693 20.505,6.086 20.692,5.468 20.186,5.094 20.823,5.094 		"/>
	</g>
	<g id="XMLID_127_">
		<polygon fill-rule="evenodd" clip-rule="evenodd" fill="#FEFEFE" points="21.01,7.172 21.217,7.791 21.854,7.791 21.348,8.164 
			21.535,8.783 21.01,8.39 20.505,8.783 20.692,8.164 20.186,7.791 20.823,7.791 		"/>
	</g>
	<g id="XMLID_126_">
		<polygon fill-rule="evenodd" clip-rule="evenodd" fill="#FEFEFE" points="21.01,9.868 21.217,10.487 21.854,10.487 21.348,10.861 
			21.535,11.479 21.01,11.105 20.505,11.479 20.692,10.861 20.186,10.487 20.823,10.487 		"/>
	</g>
	<g id="XMLID_55_">
		<polygon fill-rule="evenodd" clip-rule="evenodd" fill="#FEFEFE" points="21.01,12.565 21.217,13.184 21.854,13.184 
			21.348,13.558 21.535,14.176 21.01,13.783 20.505,14.176 20.692,13.558 20.186,13.184 20.823,13.184 		"/>
	</g>
</g>
</svg>
