<?xml version="1.0" encoding="utf-8"?>
<!-- Generator: Adobe Illustrator 16.0.0, SVG Export Plug-In . SVG Version: 6.00 Build 0)  -->
<!DOCTYPE svg PUBLIC "-//W3C//DTD SVG 1.1//EN" "http://www.w3.org/Graphics/SVG/1.1/DTD/svg11.dtd">
<svg version="1.1" id="Calque_1" xmlns="http://www.w3.org/2000/svg" xmlns:xlink="http://www.w3.org/1999/xlink" x="0px" y="0px"
	 width="166px" height="32px" viewBox="0 0 166 32" enable-background="new 0 0 166 32" xml:space="preserve">
<g>
	<path d="M21.671,31.147c-1.701,0-3.467-1.267-3.467-2.634V8.609c0-0.033-0.034-0.067-0.067-0.067h-1.634
		c-0.033,0-0.066,0.034-0.066,0.067v15.903H9.501V8.609c0-0.033-0.033-0.067-0.066-0.067H7.868c-0.033,0-0.066,0.034-0.066,0.067
		v15.903H0.866V3.208h6.935v1.367c0.833-0.9,2.5-1.367,4.501-1.367c2.034,0,3.034,0.534,3.801,1.601
		c1.034-1.3,2.534-1.601,4.701-1.601c2.401,0,4.268,1.234,4.268,2.967v19.604c0,0.033,0.034,0.067,0.067,0.067h17.137v5.301H21.671z
		 M30.173,24.513c-2.301,0-3.468-0.867-3.468-2.634V5.909c0-1.8,1.167-2.701,3.468-2.701h8.635c2.301,0,3.468,0.9,3.468,2.701
		v10.635H33.64v2.601c0,0.033,0.033,0.067,0.066,0.067h1.567c0.033,0,0.066-0.034,0.066-0.067v-1.267h6.935v4.001
		c0,1.767-1.167,2.634-3.468,2.634H30.173z M35.34,8.609c0-0.033-0.033-0.067-0.066-0.067h-1.567c-0.033,0-0.066,0.034-0.066,0.067
		v2.967h1.7V8.609z"/>
	<path d="M48.449,24.513c-2.3,0-3.467-0.867-3.467-2.634V9.843h-1.7V4.575h1.7V3.208h6.935v1.367h8.635v5.268h-8.635v9.302
		c0,0.033,0.033,0.067,0.066,0.067h1.601c0.033,0,0.066-0.034,0.066-0.067V11.21h6.901v10.669c0,1.767-1.167,2.634-3.467,2.634
		H48.449z"/>
	<path d="M65.655,24.513c-2.3,0-3.467-0.867-3.467-2.634v-8.035c0-1.767,1.167-2.634,3.467-2.634h5.168V8.609
		c0-0.033-0.034-0.067-0.067-0.067h-1.567c-0.033,0-0.067,0.034-0.067,0.067v1.233h-6.935V5.909c0-1.8,1.167-2.701,3.467-2.701
		h8.635c2.3,0,3.467,0.9,3.467,2.701v18.604H65.655z M70.823,15.878h-1.634c-0.033,0-0.067,0.033-0.067,0.066v3.2
		c0,0.033,0.034,0.067,0.067,0.067h1.634V15.878z"/>
	<path d="M83.961,24.513c-2.3,0-3.467-0.867-3.467-2.634V9.843h-1.7V4.575h1.7V3.208h6.935v1.367h8.635v5.268h-8.635v9.302
		c0,0.033,0.033,0.067,0.066,0.067h1.601c0.033,0,0.066-0.034,0.066-0.067V11.21h6.901v10.669c0,1.767-1.167,2.634-3.467,2.634
		H83.961z"/>
	<path d="M109.869,31.147c-2.301,0-3.468-0.867-3.468-2.634v-12.47c0-0.033-0.033-0.066-0.066-0.066h-1.634v8.535h-6.935V3.208
		h12.103c2.3,0,3.434,0.9,3.434,2.701v6.201c0,1.034-0.566,1.601-1.7,1.734c1.167,0.167,1.733,0.733,1.733,1.767v10.169
		c0,0.033,0.033,0.067,0.067,0.067h17.17v5.301H109.869z M106.401,8.609c0-0.033-0.033-0.067-0.066-0.067h-1.634v3.201h1.634
		c0.033,0,0.066-0.033,0.066-0.066V8.609z M118.471,24.513c-2.301,0-3.468-0.867-3.468-2.634V3.208h6.936v15.937
		c0,0.033,0.033,0.067,0.066,0.067h1.567c0.033,0,0.066-0.034,0.066-0.067V3.208h6.935v18.671c0,1.767-1.167,2.634-3.468,2.634
		H118.471z"/>
	<path d="M135.679,24.513c-2.301,0-3.468-0.867-3.468-2.634V5.909c0-1.8,1.167-2.701,3.468-2.701h8.635
		c2.301,0,3.468,0.9,3.468,2.701v6.301h-6.935V8.609c0-0.033-0.033-0.067-0.066-0.067h-1.567c-0.033,0-0.066,0.034-0.066,0.067
		v10.535c0,0.033,0.033,0.067,0.066,0.067h1.567c0.033,0,0.066-0.034,0.066-0.067v-4.967h6.935v7.702
		c0,1.767-1.167,2.634-3.468,2.634H135.679z"/>
	<path d="M158.419,24.513l-2.267-5.701v5.701h-6.701V3.208h6.701v5.435l2.067-5.435h7.301l-4.768,10.269l4.968,11.036H158.419z"/>
</g>
</svg>
